<svg width="16" height="16" viewBox="0 0 16 16" fill="none" xmlns="http://www.w3.org/2000/svg">
<path d="M15.3332 10.6669C15.1564 10.6669 14.9869 10.7371 14.8618 10.8621C14.7368 10.9872 14.6666 11.1567 14.6666 11.3336V12.6669C14.6666 13.1973 14.4559 13.706 14.0808 14.0811C13.7057 14.4562 13.197 14.6669 12.6666 14.6669H11.3332C11.1564 14.6669 10.9869 14.7371 10.8618 14.8621C10.7368 14.9872 10.6666 15.1567 10.6666 15.3335C10.6666 15.5104 10.7368 15.6799 10.8618 15.8049C10.9869 15.93 11.1564 16.0002 11.3332 16.0002H12.6666C13.5503 15.9991 14.3975 15.6476 15.0224 15.0227C15.6473 14.3978 15.9988 13.5506 15.9999 12.6669V11.3336C15.9999 11.1567 15.9297 10.9872 15.8046 10.8621C15.6796 10.7371 15.51 10.6669 15.3332 10.6669Z" fill="#2F3037"/>
<path d="M0.666672 5.33334C0.843483 5.33334 1.01305 5.2631 1.13808 5.13808C1.2631 5.01305 1.33334 4.84348 1.33334 4.66667V3.33334C1.33334 2.80291 1.54405 2.2942 1.91912 1.91912C2.2942 1.54405 2.80291 1.33334 3.33334 1.33334H4.66667C4.84348 1.33334 5.01305 1.2631 5.13808 1.13808C5.2631 1.01305 5.33334 0.843483 5.33334 0.666672C5.33334 0.489861 5.2631 0.320291 5.13808 0.195267C5.01305 0.070243 4.84348 5.08626e-06 4.66667 5.08626e-06H3.33334C2.44961 0.00106366 1.60238 0.352593 0.977485 0.977485C0.352593 1.60238 0.00106366 2.44961 5.08626e-06 3.33334V4.66667C5.08626e-06 4.84348 0.070243 5.01305 0.195267 5.13808C0.320291 5.2631 0.489861 5.33334 0.666672 5.33334Z" fill="#2F3037"/>
<path d="M4.66667 14.6669H3.33333C2.8029 14.6669 2.29419 14.4562 1.91912 14.0811C1.54405 13.706 1.33333 13.1973 1.33333 12.6669V11.3336C1.33333 11.1567 1.2631 10.9872 1.13807 10.8621C1.01305 10.7371 0.843478 10.6669 0.666667 10.6669C0.489856 10.6669 0.320286 10.7371 0.195262 10.8621C0.0702379 10.9872 0 11.1567 0 11.3336V12.6669C0.00105857 13.5506 0.352588 14.3978 0.97748 15.0227C1.60237 15.6476 2.4496 15.9991 3.33333 16.0002H4.66667C4.84348 16.0002 5.01305 15.93 5.13807 15.8049C5.26309 15.6799 5.33333 15.5104 5.33333 15.3335C5.33333 15.1567 5.26309 14.9872 5.13807 14.8621C5.01305 14.7371 4.84348 14.6669 4.66667 14.6669Z" fill="#2F3037"/>
<path d="M12.6666 0H11.3332C11.1564 0 10.9869 0.0702379 10.8618 0.195262C10.7368 0.320286 10.6666 0.489856 10.6666 0.666667C10.6666 0.843478 10.7368 1.01305 10.8618 1.13807C10.9869 1.2631 11.1564 1.33333 11.3332 1.33333H12.6666C13.197 1.33333 13.7057 1.54405 14.0808 1.91912C14.4559 2.29419 14.6666 2.8029 14.6666 3.33333V4.66667C14.6666 4.84348 14.7368 5.01305 14.8618 5.13807C14.9869 5.26309 15.1564 5.33333 15.3332 5.33333C15.51 5.33333 15.6796 5.26309 15.8046 5.13807C15.9297 5.01305 15.9999 4.84348 15.9999 4.66667V3.33333C15.9988 2.4496 15.6473 1.60237 15.0224 0.97748C14.3975 0.352588 13.5503 0.00105857 12.6666 0Z" fill="#2F3037"/>
<path d="M8.0001 7.33333C9.47285 7.33333 10.6668 6.13943 10.6668 4.66667C10.6668 3.19391 9.47285 2 8.0001 2C6.52734 2 5.33343 3.19391 5.33343 4.66667C5.33343 6.13943 6.52734 7.33333 8.0001 7.33333Z" fill="#2F3037"/>
<path d="M7.33344 8.66688C6.2729 8.66794 5.2561 9.08971 4.50618 9.83963C3.75627 10.5895 3.3345 11.6063 3.33344 12.6669C3.33344 12.8437 3.40368 13.0133 3.5287 13.1383C3.65373 13.2633 3.8233 13.3336 4.00011 13.3336H12.0001C12.1769 13.3336 12.3465 13.2633 12.4715 13.1383C12.5965 13.0133 12.6668 12.8437 12.6668 12.6669C12.6657 11.6063 12.2439 10.5895 11.494 9.83963C10.7441 9.08971 9.72731 8.66794 8.66677 8.66688H7.33344Z" fill="#2F3037"/>
</svg>
