<svg width="30" height="30" viewBox="0 0 30 30" fill="none" xmlns="http://www.w3.org/2000/svg">
<g opacity="0.4">
<path d="M21.1132 0H26.1922C28.2956 0 29.9999 1.71878 29.9999 3.83994V8.96179C29.9999 11.083 28.2956 12.8017 26.1922 12.8017H21.1132C19.0098 12.8017 17.3054 11.083 17.3054 8.96179V3.83994C17.3054 1.71878 19.0098 0 21.1132 0Z" fill="#63628C"/>
<path d="M21.1132 0H26.1922C28.2956 0 29.9999 1.71878 29.9999 3.83994V8.96179C29.9999 11.083 28.2956 12.8017 26.1922 12.8017H21.1132C19.0098 12.8017 17.3054 11.083 17.3054 8.96179V3.83994C17.3054 1.71878 19.0098 0 21.1132 0Z" fill="#C3C1FE" fill-opacity="0.2"/>
</g>
<path d="M8.88674 17.1983C10.9901 17.1983 12.6945 18.917 12.6945 21.0382V26.1601C12.6945 28.2798 10.9901 30 8.88674 30H3.80779C1.70438 30 0 28.2798 0 26.1601V21.0382C0 18.917 1.70438 17.1983 3.80779 17.1983H8.88674ZM26.1922 17.1983C28.2956 17.1983 30 18.917 30 21.0382V26.1601C30 28.2798 28.2956 30 26.1922 30H21.1133C19.0099 30 17.3055 28.2798 17.3055 26.1601V21.0382C17.3055 18.917 19.0099 17.1983 21.1133 17.1983H26.1922ZM8.88674 0C10.9901 0 12.6945 1.71878 12.6945 3.83994V8.96179C12.6945 11.083 10.9901 12.8017 8.88674 12.8017H3.80779C1.70438 12.8017 0 11.083 0 8.96179V3.83994C0 1.71878 1.70438 0 3.80779 0H8.88674Z" fill="#63628C"/>
<path d="M8.88674 17.1983C10.9901 17.1983 12.6945 18.917 12.6945 21.0382V26.1601C12.6945 28.2798 10.9901 30 8.88674 30H3.80779C1.70438 30 0 28.2798 0 26.1601V21.0382C0 18.917 1.70438 17.1983 3.80779 17.1983H8.88674ZM26.1922 17.1983C28.2956 17.1983 30 18.917 30 21.0382V26.1601C30 28.2798 28.2956 30 26.1922 30H21.1133C19.0099 30 17.3055 28.2798 17.3055 26.1601V21.0382C17.3055 18.917 19.0099 17.1983 21.1133 17.1983H26.1922ZM8.88674 0C10.9901 0 12.6945 1.71878 12.6945 3.83994V8.96179C12.6945 11.083 10.9901 12.8017 8.88674 12.8017H3.80779C1.70438 12.8017 0 11.083 0 8.96179V3.83994C0 1.71878 1.70438 0 3.80779 0H8.88674Z" fill="#C3C1FE" fill-opacity="0.2"/>
</svg>
