<svg width="30" height="30" viewBox="0 0 30 30" fill="none" xmlns="http://www.w3.org/2000/svg">
<g clip-path="url(#clip0_159_1261)">
<path d="M17.8125 24.375L10.3125 29.0625L12.1875 24.375C9.20381 24.375 6.34233 23.1897 4.23255 21.08C2.12276 18.9702 0.9375 16.1087 0.9375 13.125V12.1875C0.9375 9.20381 2.12276 6.34233 4.23255 4.23255C6.34233 2.12276 9.20381 0.9375 12.1875 0.9375H17.8125C20.7962 0.9375 23.6577 2.12276 25.7675 4.23255C27.8772 6.34233 29.0625 9.20381 29.0625 12.1875V13.125C29.0625 16.1087 27.8772 18.9702 25.7675 21.08C23.6577 23.1897 20.7962 24.375 17.8125 24.375Z" fill="#5C58C3" fill-opacity="0.5"/>
<path d="M19.2188 15.9375V16.875C19.2181 19.3586 18.3956 21.7722 16.8795 23.7393C15.3634 25.7065 13.239 27.1167 10.8375 27.75L12.1875 24.375C9.20383 24.375 6.34234 23.1897 4.23256 21.08C2.12277 18.9702 0.93751 16.1087 0.93751 13.125V12.1875C0.93374 9.41883 1.95575 6.74691 3.80626 4.6875H7.96876C10.9524 4.6875 13.8139 5.87276 15.9237 7.98255C18.0335 10.0923 19.2188 12.9538 19.2188 15.9375Z" fill="#63628C"/>
<path d="M22.9688 8.4375H7.03125C6.90693 8.4375 6.7877 8.38811 6.69979 8.30021C6.61189 8.2123 6.5625 8.09307 6.5625 7.96875C6.5625 7.84443 6.61189 7.7252 6.69979 7.63729C6.7877 7.54939 6.90693 7.5 7.03125 7.5H22.9688C23.0931 7.5 23.2123 7.54939 23.3002 7.63729C23.3881 7.7252 23.4375 7.84443 23.4375 7.96875C23.4375 8.09307 23.3881 8.2123 23.3002 8.30021C23.2123 8.38811 23.0931 8.4375 22.9688 8.4375ZM22.9688 13.125H7.03125C6.90693 13.125 6.7877 13.0756 6.69979 12.9877C6.61189 12.8998 6.5625 12.7806 6.5625 12.6562C6.5625 12.5319 6.61189 12.4127 6.69979 12.3248C6.7877 12.2369 6.90693 12.1875 7.03125 12.1875H22.9688C23.0931 12.1875 23.2123 12.2369 23.3002 12.3248C23.3881 12.4127 23.4375 12.5319 23.4375 12.6562C23.4375 12.7806 23.3881 12.8998 23.3002 12.9877C23.2123 13.0756 23.0931 13.125 22.9688 13.125ZM15 17.8125H7.03125C6.90693 17.8125 6.7877 17.7631 6.69979 17.6752C6.61189 17.5873 6.5625 17.4681 6.5625 17.3438C6.5625 17.2194 6.61189 17.1002 6.69979 17.0123C6.7877 16.9244 6.90693 16.875 7.03125 16.875H15C15.1243 16.875 15.2435 16.9244 15.3315 17.0123C15.4194 17.1002 15.4688 17.2194 15.4688 17.3438C15.4688 17.4681 15.4194 17.5873 15.3315 17.6752C15.2435 17.7631 15.1243 17.8125 15 17.8125Z" fill="#CECCFD"/>
</g>
<defs>
<clipPath id="clip0_159_1261">
<rect width="30" height="30" fill="white"/>
</clipPath>
</defs>
</svg>
