<svg width="16" height="17" viewBox="0 0 16 17" fill="none" xmlns="http://www.w3.org/2000/svg">
<path d="M13.1168 2.33884C12.2721 1.63595 11.291 1.11562 10.2353 0.810643C9.17961 0.505668 8.07218 0.422658 6.9828 0.566844C4.96751 0.828656 3.12739 1.84762 1.83608 3.41685C0.54477 4.98607 -0.100932 6.98792 0.0300815 9.01592C0.161095 11.0439 1.059 12.946 2.54149 14.3361C4.02397 15.7261 5.97991 16.4998 8.01213 16.5002H12.6668C13.5505 16.4991 14.3978 16.1476 15.0227 15.5227C15.6475 14.8978 15.9991 14.0506 16.0001 13.1668V8.03951V7.99751C15.9296 6.90781 15.6375 5.84395 15.1417 4.87099C14.646 3.89803 13.9569 3.03642 13.1168 2.33884ZM5.33347 5.16684H8.00013C8.17694 5.16684 8.34651 5.23708 8.47154 5.36211C8.59656 5.48713 8.6668 5.6567 8.6668 5.83351C8.6668 6.01032 8.59656 6.17989 8.47154 6.30491C8.34651 6.42994 8.17694 6.50018 8.00013 6.50018H5.33347C5.15665 6.50018 4.98709 6.42994 4.86206 6.30491C4.73704 6.17989 4.6668 6.01032 4.6668 5.83351C4.6668 5.6567 4.73704 5.48713 4.86206 5.36211C4.98709 5.23708 5.15665 5.16684 5.33347 5.16684ZM10.6668 11.8335H5.33347C5.15665 11.8335 4.98709 11.7633 4.86206 11.6382C4.73704 11.5132 4.6668 11.3437 4.6668 11.1668C4.6668 10.99 4.73704 10.8205 4.86206 10.6954C4.98709 10.5704 5.15665 10.5002 5.33347 10.5002H10.6668C10.8436 10.5002 11.0132 10.5704 11.1382 10.6954C11.2632 10.8205 11.3335 10.99 11.3335 11.1668C11.3335 11.3437 11.2632 11.5132 11.1382 11.6382C11.0132 11.7633 10.8436 11.8335 10.6668 11.8335ZM10.6668 9.16684H5.33347C5.15665 9.16684 4.98709 9.09661 4.86206 8.97158C4.73704 8.84656 4.6668 8.67699 4.6668 8.50018C4.6668 8.32337 4.73704 8.1538 4.86206 8.02877C4.98709 7.90375 5.15665 7.83351 5.33347 7.83351H10.6668C10.8436 7.83351 11.0132 7.90375 11.1382 8.02877C11.2632 8.1538 11.3335 8.32337 11.3335 8.50018C11.3335 8.67699 11.2632 8.84656 11.1382 8.97158C11.0132 9.09661 10.8436 9.16684 10.6668 9.16684Z" fill="#6A6B70"/>
</svg>
