<svg width="63" height="60" viewBox="0 0 63 60" fill="none" xmlns="http://www.w3.org/2000/svg">
<path d="M1.9553 42.7009C5.92187 42.0993 9.72967 40.7908 13.1739 38.8458L15.3428 37.6213C15.3145 37.4608 15.2971 37.2988 15.2905 37.1362L13.9784 37.7529C11.2064 39.043 8.03834 39.3701 5.03453 38.676L2.40511 38.0573C2.28247 38.0334 2.15577 38.035 2.03382 38.0618C1.91187 38.0886 1.79761 38.14 1.69897 38.2127C1.60034 38.2852 1.5197 38.3771 1.46267 38.482C1.40564 38.5867 1.37358 38.702 1.36873 38.8197C1.3688 39.5681 1.44753 40.3147 1.60379 41.0486L1.9553 42.7009Z" fill="#63628C"/>
<path d="M17.8506 40.8884L16.4617 39.5775C16.4082 39.5273 16.3698 39.468 16.3196 39.4148L14.2757 40.5679C10.2316 42.8568 5.72118 44.3211 1.03662 44.866C0.903182 44.8818 0.775707 44.9274 0.664878 44.999C0.55406 45.0705 0.463115 45.1662 0.399692 45.2777C0.33627 45.3891 0.302208 45.5133 0.300371 45.6397C0.298544 45.7661 0.328983 45.8911 0.389147 46.0041L1.58259 48.2511C1.76392 48.5808 2.06653 48.8374 2.43407 48.9731C2.80162 49.1087 3.20906 49.1141 3.58056 48.9883C8.80932 47.149 13.6308 44.4157 17.8015 40.9265L17.8506 40.8884Z" fill="#63628C"/>
<path d="M22.6088 42.5202C22.9777 42.8525 23.4706 43.0357 23.9815 43.0306C24.4926 43.0255 24.9811 42.8323 25.3424 42.4926C25.7037 42.1529 25.9091 41.6936 25.9147 41.2133C25.9201 40.7329 25.7252 40.2696 25.3718 39.9227L20.7305 35.5593C20.3615 35.2269 19.8687 35.0437 19.3577 35.0489C18.8467 35.054 18.3581 35.2472 17.9968 35.5869C17.6356 35.9266 17.4301 36.3858 17.4245 36.8662C17.4191 37.3466 17.614 37.8099 17.9675 38.1568L22.6088 42.5202Z" fill="#63628C"/>
<path d="M11.6769 36.4706C9.43125 36.2319 7.29396 35.4343 5.48535 34.1604C5.38153 34.0954 5.26246 34.0552 5.13843 34.0432C5.01438 34.0312 4.88911 34.0477 4.77341 34.0914C4.65771 34.1351 4.55505 34.2048 4.47433 34.294C4.39361 34.3834 4.33723 34.4899 4.31007 34.6043L3.99809 36.3651L5.55266 36.7308C7.57883 37.1936 9.70339 37.1034 11.6769 36.4706Z" fill="#63628C"/>
<path d="M5.79259 50.3194C5.64582 50.6305 5.6039 50.9764 5.67248 51.3106C5.74105 51.6448 5.91682 51.9512 6.17616 52.1887L7.68265 53.605C7.9441 53.8372 8.27115 53.9937 8.62469 54.0559C8.97824 54.1181 9.34332 54.0832 9.67635 53.9555C10.8727 51.2224 12.3559 48.6083 14.104 46.1518C11.4882 47.7981 8.70386 49.1942 5.79259 50.3194Z" fill="#63628C"/>
<path d="M24.3999 48.4286C23.7142 50.2849 23.62 52.2891 24.1286 54.1952L24.5175 55.6557L26.3915 55.3624C26.5649 55.3353 26.7224 55.251 26.836 55.1248C26.9494 54.9986 27.0115 54.8386 27.0112 54.6733C27.01 54.5219 26.9576 54.3749 26.8616 54.2535C25.505 52.552 24.6553 50.5414 24.3999 48.4286Z" fill="#63628C"/>
<path d="M21.2705 44.0736C21.2139 44.0264 21.1508 43.9902 21.0974 43.94L19.7084 42.6342L19.6678 42.6764C15.9559 46.5956 13.0481 51.1272 11.0915 56.0418C11.0218 56.2107 10.9856 56.39 10.9847 56.5712C10.9837 56.8515 11.0663 57.1264 11.223 57.3648C11.3798 57.6032 11.6043 57.7956 11.8715 57.9201L14.2648 59.0452C14.3856 59.097 14.5174 59.122 14.6501 59.1181C14.7828 59.1142 14.9128 59.0816 15.0299 59.0227C15.147 58.964 15.2481 58.8806 15.3254 58.7791C15.4026 58.6776 15.4539 58.5607 15.4753 58.4375C16.0545 54.035 17.611 49.796 20.0439 45.9951L21.2705 44.0736Z" fill="#63628C"/>
<path d="M21.8758 47.0294C19.8073 50.2676 18.4154 53.8473 17.7751 57.5763L19.5327 57.9038C20.313 58.0506 21.1067 58.1247 21.9025 58.1248C22.1237 58.1246 22.3359 58.0418 22.4926 57.8947C22.6492 57.7478 22.7373 57.5484 22.738 57.3403C22.7379 57.2757 22.7297 57.2113 22.7134 57.1484L22.0563 54.6825C21.3062 51.859 21.6544 48.8764 23.0382 46.2731L23.6942 45.0396C23.5213 45.0335 23.3489 45.017 23.1782 44.9904L21.8758 47.0294Z" fill="#63628C"/>
<path d="M61.2012 21.9638C61.1984 19.9643 60.4034 18.0374 58.9715 16.5588C57.5397 15.0802 55.5735 14.156 53.4562 13.9663C53.3157 13.7298 53.126 13.5223 52.8986 13.356C52.6713 13.1896 52.4107 13.0679 52.1324 12.998L61.6981 4.00501C62.0515 3.65809 62.2464 3.1948 62.2409 2.71442C62.2354 2.23403 62.03 1.77477 61.6687 1.43507C61.3073 1.09537 60.8189 0.902241 60.3078 0.897078C59.7969 0.891926 59.304 1.07514 58.9351 1.40747L46.6855 12.9237H43.0378C42.6565 12.9246 42.2825 13.0218 41.9548 13.2052C41.6272 13.3887 41.358 13.6515 41.1756 13.9663C39.0566 14.1541 37.0884 15.0775 35.6546 16.5563C34.221 18.0351 33.425 19.963 33.4219 21.9638V25.3931L23.1799 35.0219L25.9429 37.6194L32.9796 31.004H62.2697V28.9951H61.2012V21.9638ZM35.5588 21.9638C35.5609 20.4881 36.1384 19.0643 37.1819 17.9619C38.2255 16.8594 39.6626 16.1547 41.2215 15.9813C41.5088 16.4167 41.9614 16.7334 42.4876 16.8672L35.5588 23.3831V21.9638ZM35.5588 28.9951V28.5792L47.9377 16.9415H51.5853C51.9502 16.9412 52.3089 16.8527 52.6269 16.6846C52.945 16.5163 53.2118 16.2742 53.4017 15.9813C54.9605 16.1547 56.3977 16.8594 57.4412 17.9619C58.4846 19.0643 59.0621 20.4881 59.0644 21.9638V28.9951H35.5588Z" fill="#63628C"/>
<path d="M35.4455 57.0853C35.4636 57.6346 35.709 58.1556 36.1294 58.5373C36.5499 58.9191 37.1122 59.1315 37.6967 59.1294H56.9286C57.5134 59.132 58.0763 58.9198 58.4972 58.538C58.9181 58.1562 59.1638 57.635 59.1819 57.0853L60.0954 33.0134H34.5299L35.4455 57.0853Z" fill="#63628C"/>
</svg>
