<svg width="24" height="24" viewBox="0 0 24 24" fill="none" xmlns="http://www.w3.org/2000/svg">
<g clip-path="url(#clip0_73_318)">
<path d="M21 11.5551V9.99414C21 7.60719 20.0518 5.31801 18.364 3.63018C16.6761 1.94235 14.3869 0.994141 12 0.994141C9.61305 0.994141 7.32387 1.94235 5.63604 3.63018C3.94821 5.31801 3 7.60719 3 9.99414V11.5551C2.1036 11.9878 1.34695 12.6639 0.816474 13.5061C0.285994 14.3483 0.00306518 15.3228 0 16.3181L0 16.6821C0.00158806 18.0921 0.562386 19.4438 1.55936 20.4408C2.55633 21.4378 3.90807 21.9986 5.318 22.0001H5.5C6.16304 22.0001 6.79893 21.7367 7.26777 21.2679C7.73661 20.7991 8 20.1632 8 19.5001V13.5001C7.99989 12.924 7.80077 12.3656 7.43634 11.9193C7.0719 11.473 6.56451 11.1664 6 11.0511V9.99414C6 8.40284 6.63214 6.87672 7.75736 5.7515C8.88258 4.62628 10.4087 3.99414 12 3.99414C13.5913 3.99414 15.1174 4.62628 16.2426 5.7515C17.3679 6.87672 18 8.40284 18 9.99414V11.0511C17.4355 11.1664 16.9281 11.473 16.5637 11.9193C16.1992 12.3656 16.0001 12.924 16 13.5001V19.0001H14.5C14.1022 19.0001 13.7206 19.1582 13.4393 19.4395C13.158 19.7208 13 20.1023 13 20.5001C13 20.898 13.158 21.2795 13.4393 21.5608C13.7206 21.8421 14.1022 22.0001 14.5 22.0001H18.682C20.0919 21.9986 21.4437 21.4378 22.4406 20.4408C23.4376 19.4438 23.9984 18.0921 24 16.6821V16.3181C23.9969 15.3228 23.714 14.3483 23.1835 13.5061C22.653 12.6639 21.8964 11.9878 21 11.5551ZM5 18.9781C4.4452 18.9007 3.93714 18.6252 3.56956 18.2024C3.20198 17.7797 2.99969 17.2383 3 16.6781V16.3141C2.99969 15.754 3.20198 15.2126 3.56956 14.7898C3.93714 14.3671 4.4452 14.0916 5 14.0141V18.9781ZM21 16.6781C21.0003 17.2383 20.798 17.7797 20.4304 18.2024C20.0629 18.6252 19.5548 18.9007 19 18.9781V14.0221C19.5548 14.0996 20.0629 14.3751 20.4304 14.7978C20.798 15.2206 21.0003 15.762 21 16.3221V16.6781Z" fill="#6A6B70"/>
</g>
<defs>
<clipPath id="clip0_73_318">
<rect width="24" height="24" fill="white"/>
</clipPath>
</defs>
</svg>
