l<svg width="40" height="40" viewBox="0 0 40 40" fill="none" xmlns="http://www.w3.org/2000/svg">
<g clip-path="url(#clip0_1_1709)">
<path d="M15 20C20.5228 20 25 15.5228 25 10C25 4.47715 20.5228 0 15 0C9.47715 0 5 4.47715 5 10C5 15.5228 9.47715 20 15 20Z" fill="white"/>
<path d="M15 23.3328C11.0232 23.3377 7.21075 24.9196 4.39876 27.7316C1.58676 30.5435 0.00485159 34.356 0 38.3328C0 38.7748 0.175595 39.1987 0.488155 39.5113C0.800716 39.8238 1.22464 39.9994 1.66667 39.9994H28.3333C28.7754 39.9994 29.1993 39.8238 29.5118 39.5113C29.8244 39.1987 30 38.7748 30 38.3328C29.9951 34.356 28.4132 30.5435 25.6012 27.7316C22.7892 24.9196 18.9768 23.3377 15 23.3328Z" fill="white"/>
<path d="M36.6664 13.125C35.7389 13.1712 34.8674 13.5829 34.2427 14.2701C33.618 14.9573 33.291 15.8639 33.3331 16.7917C33.3752 15.8639 33.0482 14.9573 32.4235 14.2701C31.7988 13.5829 30.9273 13.1712 29.9998 13.125C29.0723 13.1712 28.2008 13.5829 27.5761 14.2701C26.9514 14.9573 26.6243 15.8639 26.6665 16.7917C26.6665 19.675 30.4264 23.0533 32.2998 24.5567C32.593 24.7914 32.9575 24.9194 33.3331 24.9194C33.7088 24.9194 34.0732 24.7914 34.3664 24.5567C36.2398 23.0567 39.9997 19.675 39.9997 16.7917C40.0419 15.8639 39.7148 14.9573 39.0901 14.2701C38.4654 13.5829 37.594 13.1712 36.6664 13.125Z" fill="white"/>
</g>
<defs>
<clipPath id="clip0_1_1709">
<rect width="40" height="40" fill="white"/>
</clipPath>
</defs>
</svg>
