<svg width="43" height="36" viewBox="0 0 43 36" fill="none" xmlns="http://www.w3.org/2000/svg">
<path d="M20.2029 6.38482L21.5 8.61776L22.7971 6.38482C23.6377 4.93755 24.8697 3.71832 26.3758 2.85728C27.8703 2.00285 29.5787 1.5335 31.3304 1.50054C34.1558 1.62809 36.8006 2.81037 38.6972 4.77042C40.6008 6.73774 41.5972 9.32743 41.4925 11.9713L41.4913 12.001V12.0307C41.4913 15.3932 39.6102 19.1156 36.6351 22.8393C33.6917 26.5232 29.8471 29.999 26.2945 32.8385L26.2935 32.8393C24.9601 33.907 23.263 34.5 21.5 34.5C19.737 34.5 18.0399 33.907 16.7065 32.8393L16.7055 32.8385C13.1529 29.999 9.30828 26.5232 6.3649 22.8393C3.38982 19.1156 1.50867 15.3932 1.50867 12.0307V12.001L1.5075 11.9713C1.40279 9.32743 2.39917 6.73774 4.30279 4.77042C6.19937 2.81037 8.8442 1.62809 11.6696 1.50054C13.4213 1.5335 15.1297 2.00285 16.6242 2.85728C18.1303 3.71832 19.3623 4.93755 20.2029 6.38482Z" stroke="white" stroke-width="3"/>
</svg>
