<svg width="23" height="19" viewBox="0 0 23 19" fill="none" xmlns="http://www.w3.org/2000/svg">
<path d="M16.6313 0.139648C15.5619 0.155287 14.5158 0.435946 13.5986 0.953283C12.6815 1.47062 11.9258 2.20632 11.4078 3.08608C10.8899 2.20632 10.1342 1.47062 9.21706 0.953283C8.29992 0.435946 7.25381 0.155287 6.18438 0.139648C4.47957 0.209283 2.87337 0.910411 1.71668 2.08986C0.559995 3.2693 -0.0531546 4.83119 0.0111895 6.43429C0.0111895 10.4941 4.55655 14.928 8.36873 17.9343C9.21989 18.6067 10.2961 18.9754 11.4078 18.9754C12.5196 18.9754 13.5958 18.6067 14.4469 17.9343C18.2591 14.928 22.8045 10.4941 22.8045 6.43429C22.8688 4.83119 22.2557 3.2693 21.099 2.08986C19.9423 0.910411 18.3361 0.209283 16.6313 0.139648Z" fill="#E93636"/>
</svg>
