<svg width="30" height="30" viewBox="0 0 30 30" fill="none" xmlns="http://www.w3.org/2000/svg">
<path d="M14.0625 1.6875L2.1875 8.5C1.625 8.8125 1.25 9.4375 1.25 10.125V26.875C1.25 27.9375 2.0625 28.75 3.125 28.75H10C10.375 28.75 10.625 28.5 10.625 28.125V21.25C10.625 20.5625 11.1875 20 11.875 20H15V1.4375C14.6875 1.4375 14.375 1.5 14.0625 1.6875Z" fill="#C3C1FE" fill-opacity="0.41"/>
<path d="M27.8125 8.5L15.9375 1.6875C15.625 1.5 15.3125 1.4375 15 1.4375V20H18.125C18.8125 20 19.375 20.5625 19.375 21.25V28.125C19.375 28.5 19.625 28.75 20 28.75H26.875C27.9375 28.75 28.75 27.9375 28.75 26.875V10.125C28.75 9.4375 28.375 8.8125 27.8125 8.5Z" fill="#63628C"/>
</svg>
