<svg width="18" height="24" viewBox="0 0 18 24" fill="none" xmlns="http://www.w3.org/2000/svg">
<path d="M5.24457 17.7833C5.93887 18.6681 6.57078 19.6001 7.13571 20.5727C7.61806 21.4872 7.81914 22.1074 8.17165 23.2094C8.38784 23.8183 8.58322 24 9.0033 24C9.46106 24 9.66874 23.6909 9.8292 23.2128C10.1624 22.1721 10.4239 21.3778 10.8364 20.6273C11.6458 19.1785 12.6515 17.8909 13.6398 16.6535C13.9073 16.3033 15.6371 14.263 16.4158 12.6532C16.4158 12.6532 17.3729 10.8848 17.3729 8.41498C17.3729 6.10474 16.429 4.50247 16.429 4.50247L13.7115 5.23024L12.0611 9.57696L11.6528 10.1763L11.5712 10.2849L11.4626 10.4208L11.272 10.6379L10.9996 10.9103L9.53 12.1076L5.85579 14.229L5.24457 17.7833Z" fill="#34A853"/>
<path d="M1.45242 12.3559C2.34916 14.4041 4.0784 16.2047 5.24837 17.7848L11.4626 10.4237C11.4626 10.4237 10.5871 11.5686 8.99905 11.5686C7.2301 11.5686 5.80104 10.1561 5.80104 8.37488C5.80104 7.15343 6.53588 6.31432 6.53588 6.31432L2.3175 7.44465L1.45242 12.3559Z" fill="#FBBC04"/>
<path d="M11.532 0.378541C13.5959 1.04398 15.3624 2.44099 16.4309 4.50103L11.4645 10.4194C11.4645 10.4194 12.1993 9.56512 12.1993 8.35126C12.1993 6.52861 10.6646 5.16699 9.00657 5.16699C7.4387 5.16699 6.53823 6.31007 6.53823 6.31007V2.58157L11.532 0.378541Z" fill="#4285F4"/>
<path d="M2.59079 2.9936C3.82349 1.51874 5.99257 0 8.98296 0C10.4338 0 11.5268 0.380896 11.5268 0.380896L6.53352 6.31334H2.9957L2.59079 2.9936Z" fill="#1A73E8"/>
<path d="M1.45242 12.3559C1.45242 12.3559 0.627441 10.7403 0.627441 8.39987C0.627441 6.18782 1.48735 4.25422 2.59079 2.9936L6.53588 6.31432L1.45242 12.3559Z" fill="#EA4335"/>
</svg>
