<svg width="50" height="50" viewBox="0 0 50 50" fill="none" xmlns="http://www.w3.org/2000/svg">
<path d="M31.25 20.3125H18.75C17.8871 20.3125 17.1875 21.0121 17.1875 21.875V28.125C17.1875 28.9879 17.8871 29.6875 18.75 29.6875H31.25C32.1129 29.6875 32.8125 28.9879 32.8125 28.125V21.875C32.8125 21.0121 32.1129 20.3125 31.25 20.3125Z" fill="#908CFF" fill-opacity="0.32"/>
<path d="M31.25 31.25H18.75C17.8871 31.25 17.1875 31.9496 17.1875 32.8125V39.0625C17.1875 39.9254 17.8871 40.625 18.75 40.625H31.25C32.1129 40.625 32.8125 39.9254 32.8125 39.0625V32.8125C32.8125 31.9496 32.1129 31.25 31.25 31.25Z" fill="#908CFF" fill-opacity="0.32"/>
<path d="M31.25 9.375H18.75C17.8871 9.375 17.1875 10.0746 17.1875 10.9375V17.1875C17.1875 18.0504 17.8871 18.75 18.75 18.75H31.25C32.1129 18.75 32.8125 18.0504 32.8125 17.1875V10.9375C32.8125 10.0746 32.1129 9.375 31.25 9.375Z" fill="#908CFF" fill-opacity="0.32"/>
<path d="M31.25 20.3125H25V29.6875H31.25C31.6644 29.6875 32.0618 29.5229 32.3549 29.2299C32.6479 28.9368 32.8125 28.5394 32.8125 28.125V21.875C32.8125 21.4606 32.6479 21.0632 32.3549 20.7701C32.0618 20.4771 31.6644 20.3125 31.25 20.3125ZM31.25 31.25H25V40.625H31.25C31.6644 40.625 32.0618 40.4604 32.3549 40.1674C32.6479 39.8743 32.8125 39.4769 32.8125 39.0625V32.8125C32.8125 32.3981 32.6479 32.0007 32.3549 31.7076C32.0618 31.4146 31.6644 31.25 31.25 31.25ZM31.25 9.375H25V18.75H31.25C31.6644 18.75 32.0618 18.5854 32.3549 18.2924C32.6479 17.9993 32.8125 17.6019 32.8125 17.1875V10.9375C32.8125 10.5231 32.6479 10.1257 32.3549 9.83265C32.0618 9.53962 31.6644 9.375 31.25 9.375Z" fill="#63628C"/>
</svg>
