<svg width="24" height="24" viewBox="0 0 24 24" fill="none" xmlns="http://www.w3.org/2000/svg">
<g clip-path="url(#clip0_31_18)">
<path d="M7.42407 21C7.81173 21.8914 8.4513 22.6502 9.26423 23.1831C10.0771 23.716 11.028 23.9999 12.0001 23.9999C12.9721 23.9999 13.923 23.716 14.7359 23.1831C15.5488 22.6502 16.1884 21.8914 16.5761 21H7.42407Z" fill="#2F3037"/>
<path d="M22.3921 12.549L20.6561 6.82599C20.1001 4.82434 18.8914 3.06576 17.2219 1.82949C15.5524 0.59322 13.5177 -0.0498915 11.441 0.00226889C9.3642 0.0544293 7.36438 0.798871 5.75902 2.1174C4.15367 3.43592 3.03479 5.25295 2.58005 7.27999L1.23205 12.817C1.05289 13.5527 1.04318 14.3196 1.20366 15.0596C1.36415 15.7997 1.69063 16.4936 2.15847 17.0891C2.62632 17.6845 3.2233 18.1659 3.90437 18.497C4.58544 18.828 5.3328 19 6.09005 19H17.6071C18.3878 19 19.1577 18.8172 19.8551 18.4662C20.5525 18.1152 21.158 17.6058 21.6231 16.9787C22.0882 16.3517 22.4 15.6244 22.5335 14.8552C22.6671 14.0859 22.6186 13.2961 22.3921 12.549Z" fill="#2F3037"/>
</g>
<defs>
<clipPath id="clip0_31_18">
<rect width="24" height="24" fill="white"/>
</clipPath>
</defs>
</svg>
