<svg width="24" height="32" viewBox="0 0 24 32" fill="none" xmlns="http://www.w3.org/2000/svg">
<path d="M6.66667 0C4.89921 0.00211714 3.20474 0.705176 1.95496 1.95496C0.705176 3.20474 0.00211714 4.89921 0 6.66667V30.6667C0.000187848 30.9092 0.0665153 31.1471 0.191842 31.3547C0.317169 31.5623 0.496749 31.7318 0.71125 31.845C0.925752 31.9581 1.16705 32.0106 1.40917 31.9968C1.6513 31.983 1.88507 31.9034 2.08533 31.7667L4.89333 29.848L7.70133 31.7667C7.92319 31.9186 8.18578 31.9999 8.45467 31.9999C8.72355 31.9999 8.98615 31.9186 9.208 31.7667L12.008 29.848L14.808 31.7667C15.03 31.9189 15.2928 32.0003 15.562 32.0003C15.8312 32.0003 16.094 31.9189 16.316 31.7667L19.116 29.8493L21.916 31.7653C22.1162 31.9017 22.3497 31.9809 22.5915 31.9946C22.8333 32.0083 23.0742 31.9558 23.2885 31.8429C23.5027 31.7299 23.6821 31.5608 23.8075 31.3535C23.9329 31.1463 23.9994 30.9089 24 30.6667V6.66667C23.9979 4.89921 23.2948 3.20474 22.045 1.95496C20.7953 0.705176 19.1008 0.00211714 17.3333 0L6.66667 0ZM14.6667 18.6667H6.66667C6.31305 18.6667 5.97391 18.5262 5.72386 18.2761C5.47381 18.0261 5.33333 17.687 5.33333 17.3333C5.33333 16.9797 5.47381 16.6406 5.72386 16.3905C5.97391 16.1405 6.31305 16 6.66667 16H14.6667C15.0203 16 15.3594 16.1405 15.6095 16.3905C15.8595 16.6406 16 16.9797 16 17.3333C16 17.687 15.8595 18.0261 15.6095 18.2761C15.3594 18.5262 15.0203 18.6667 14.6667 18.6667ZM18.6667 12C18.6667 12.3536 18.5262 12.6928 18.2761 12.9428C18.0261 13.1929 17.687 13.3333 17.3333 13.3333H6.66667C6.31305 13.3333 5.97391 13.1929 5.72386 12.9428C5.47381 12.6928 5.33333 12.3536 5.33333 12C5.33333 11.6464 5.47381 11.3072 5.72386 11.0572C5.97391 10.8071 6.31305 10.6667 6.66667 10.6667H17.3333C17.687 10.6667 18.0261 10.8071 18.2761 11.0572C18.5262 11.3072 18.6667 11.6464 18.6667 12Z" fill="#B3B3B3"/>
</svg>
