<svg width="16" height="17" viewBox="0 0 16 17" fill="none" xmlns="http://www.w3.org/2000/svg">
<g clip-path="url(#clip0_73_364)">
<path d="M11.6667 16.5C6.23401 16.6527 -3.38333 7.02467 1.24134 1.792C1.25801 1.776 1.96934 1.156 1.96934 1.156C2.41579 0.743296 3.0028 0.516359 3.61076 0.521438C4.21871 0.526517 4.80185 0.763228 5.24134 1.18333L6.67601 2.72867C7.09861 3.17032 7.33232 3.75936 7.32746 4.37061C7.32261 4.98186 7.07957 5.56712 6.65001 6.002L6.39134 6.26467C7.1617 7.97059 8.52464 9.33922 10.2273 10.1167L10.5013 9.85C10.9457 9.42673 11.536 9.19064 12.1497 9.19064C12.7634 9.19064 13.3536 9.42673 13.798 9.85L15.2893 11.2333C15.7311 11.6649 15.9846 12.2533 15.9949 12.8708C16.0051 13.4882 15.7712 14.0847 15.344 14.5307C15.344 14.5307 14.724 15.2413 14.708 15.258C14.3085 15.656 13.834 15.9708 13.3119 16.184C12.7898 16.3972 12.2306 16.5046 11.6667 16.5ZM2.63334 3.23333C-0.605992 7.24533 9.76268 17.0153 13.27 13.8667C13.27 13.8667 13.886 13.1607 13.9027 13.1447C13.9652 13.0822 14.0003 12.9974 14.0003 12.909C14.0003 12.8206 13.9652 12.7358 13.9027 12.6733L12.4107 11.2907C12.2107 11.124 12.098 11.122 11.9127 11.264L11.1553 12.0093C11.0187 12.1437 10.8464 12.236 10.6588 12.2753C10.4713 12.3145 10.2764 12.299 10.0973 12.2307C8.76709 11.7357 7.55882 10.9604 6.55443 9.95752C5.55004 8.95463 4.773 7.74751 4.27601 6.418C4.20367 6.23753 4.18551 6.03988 4.22376 5.84925C4.262 5.65862 4.35499 5.48327 4.49134 5.34467L5.23001 4.594C5.26365 4.56412 5.29068 4.52755 5.30937 4.48662C5.32807 4.44569 5.33802 4.40132 5.33858 4.35633C5.33915 4.31134 5.33032 4.26672 5.31265 4.22534C5.29499 4.18396 5.26889 4.14672 5.23601 4.116L3.80001 2.57067C3.73647 2.51757 3.65504 2.49075 3.57238 2.49571C3.48972 2.50067 3.41208 2.53702 3.35534 2.59733C3.33934 2.614 2.63334 3.23333 2.63334 3.23333ZM16 6.83333C15.9981 5.15423 15.3302 3.54444 14.1429 2.35713C12.9556 1.16982 11.3458 0.501941 9.66667 0.5C9.40146 0.5 9.1471 0.605357 8.95957 0.792893C8.77203 0.98043 8.66667 1.23478 8.66667 1.5C8.66667 1.76522 8.77203 2.01957 8.95957 2.20711C9.1471 2.39464 9.40146 2.5 9.66667 2.5C10.8155 2.50141 11.9169 2.95841 12.7292 3.77076C13.5416 4.58312 13.9986 5.6845 14 6.83333C14 7.09855 14.1054 7.3529 14.2929 7.54044C14.4804 7.72798 14.7348 7.83333 15 7.83333C15.2652 7.83333 15.5196 7.72798 15.7071 7.54044C15.8947 7.3529 16 7.09855 16 6.83333ZM12.6667 6.83333C12.6658 6.03796 12.3494 5.27541 11.787 4.71299C11.2246 4.15057 10.4621 3.83422 9.66667 3.83333C9.40146 3.83333 9.1471 3.93869 8.95957 4.12623C8.77203 4.31376 8.66667 4.56812 8.66667 4.83333C8.66667 5.09855 8.77203 5.3529 8.95957 5.54044C9.1471 5.72798 9.40146 5.83333 9.66667 5.83333C9.93189 5.83333 10.1862 5.93869 10.3738 6.12623C10.5613 6.31376 10.6667 6.56812 10.6667 6.83333C10.6667 7.09855 10.772 7.3529 10.9596 7.54044C11.1471 7.72798 11.4015 7.83333 11.6667 7.83333C11.9319 7.83333 12.1862 7.72798 12.3738 7.54044C12.5613 7.3529 12.6667 7.09855 12.6667 6.83333Z" fill="#6A6B70"/>
</g>
<defs>
<clipPath id="clip0_73_364">
<rect width="16" height="16" fill="white" transform="translate(0 0.5)"/>
</clipPath>
</defs>
</svg>
