<svg width="30" height="30" viewBox="0 0 30 30" fill="none" xmlns="http://www.w3.org/2000/svg">
<path d="M15 13.125C17.8477 13.125 20.1562 10.8165 20.1562 7.96875C20.1562 5.12103 17.8477 2.8125 15 2.8125C12.1523 2.8125 9.84375 5.12103 9.84375 7.96875C9.84375 10.8165 12.1523 13.125 15 13.125Z" fill="#63628C"/>
<path d="M15 14.0625C12.7622 14.0625 10.6161 14.9514 9.03379 16.5338C7.45145 18.1161 6.5625 20.2622 6.5625 22.5V26.25C6.5625 26.4986 6.66127 26.7371 6.83709 26.9129C7.0129 27.0887 7.25136 27.1875 7.5 27.1875H22.5C22.7486 27.1875 22.9871 27.0887 23.1629 26.9129C23.3387 26.7371 23.4375 26.4986 23.4375 26.25V22.5C23.4375 20.2622 22.5486 18.1161 20.9662 16.5338C19.3839 14.9514 17.2378 14.0625 15 14.0625Z" fill="#63628C"/>
<path d="M15 2.8125V13.125C16.3675 13.125 17.679 12.5818 18.646 11.6148C19.613 10.6478 20.1562 9.33627 20.1562 7.96875C20.1562 6.60123 19.613 5.28972 18.646 4.32273C17.679 3.35575 16.3675 2.8125 15 2.8125Z" fill="#C3C1FE"/>
<path d="M15 14.0625V27.1875H22.5C22.7486 27.1875 22.9871 27.0887 23.1629 26.9129C23.3387 26.7371 23.4375 26.4986 23.4375 26.25V22.5C23.4375 20.2622 22.5486 18.1161 20.9662 16.5338C19.3839 14.9514 17.2378 14.0625 15 14.0625Z" fill="#63628C"/>
</svg>
