<svg width="25" height="25" viewBox="0 0 25 25" fill="none" xmlns="http://www.w3.org/2000/svg">
<path d="M24.6649 23.056L17.2551 15.6463C18.7805 13.7106 19.5088 11.2652 19.291 8.81033C19.0732 6.35545 17.9258 4.07652 16.0834 2.43962C14.241 0.802718 11.8428 -0.0684765 9.37939 0.0042081C6.91594 0.0768927 4.57333 1.08796 2.83064 2.83064C1.08796 4.57333 0.0768927 6.91594 0.0042081 9.37939C-0.0684765 11.8428 0.802718 14.241 2.43962 16.0834C4.07652 17.9258 6.35545 19.0732 8.81033 19.291C11.2652 19.5088 13.7106 18.7805 15.6463 17.2551L23.056 24.6649C23.1613 24.7711 23.2867 24.8553 23.4247 24.9129C23.5628 24.9704 23.7109 25 23.8604 25C24.01 25 24.1581 24.9704 24.2962 24.9129C24.4342 24.8553 24.5595 24.7711 24.6649 24.6649C24.7711 24.5595 24.8553 24.4342 24.9129 24.2962C24.9704 24.1581 25 24.01 25 23.8604C25 23.7109 24.9704 23.5628 24.9129 23.4247C24.8553 23.2867 24.7711 23.1613 24.6649 23.056ZM2.33361 9.69805C2.33361 8.2415 2.76553 6.81766 3.57474 5.60659C4.38396 4.39551 5.53413 3.45159 6.8798 2.8942C8.22548 2.3368 9.70622 2.19096 11.1348 2.47512C12.5633 2.75927 13.8756 3.46067 14.9055 4.49061C15.9354 5.52054 16.6368 6.83276 16.921 8.26132C17.2051 9.68988 17.0593 11.1706 16.5019 12.5163C15.9445 13.862 15.0006 15.0121 13.7895 15.8214C12.5784 16.6306 11.1546 17.0625 9.69805 17.0625C7.7458 17.0595 5.87437 16.2826 4.49392 14.9022C3.11346 13.5217 2.33661 11.6503 2.33361 9.69805Z" fill="#7878AB"/>
</svg>
