<svg width="298" height="251" viewBox="0 0 298 251" fill="none" xmlns="http://www.w3.org/2000/svg">
<path d="M173.069 69.7705L167.109 66.3366L167.555 66.0793L173.515 69.5137L173.069 69.7705Z" fill="#CBCBCB"/>
<path d="M167.87 69.7705L167.425 69.5137L173.384 66.0793L173.83 66.3366L167.87 69.7705Z" fill="#CBCBCB"/>
<path d="M123.516 43.1526L123.228 43.7615L124.912 44.6973L125.199 44.0885L123.516 43.1526Z" fill="#CBCBCB"/>
<path d="M158.42 63.3245L155.069 61.4618L155.356 60.8529L158.707 62.7156L158.42 63.3245ZM151.718 59.5991L148.367 57.7362L148.655 57.1274L152.006 58.9902L151.718 59.5991ZM145.016 55.8735L141.666 54.0109L141.953 53.402L145.304 55.2647L145.016 55.8735ZM138.315 52.1481L134.964 50.2854L135.252 49.6766L138.602 51.5392L138.315 52.1481ZM131.613 48.4227L128.262 46.56L128.55 45.9512L131.901 47.8139L131.613 48.4227Z" fill="#CBCBCB"/>
<path d="M162.058 64.5782L161.771 65.187L163.454 66.1229L163.742 65.514L162.058 64.5782Z" fill="#CBCBCB"/>
<path d="M34.9462 88.9458C34.9462 89.1595 34.9398 89.3713 34.927 89.5814C34.8555 90.7931 34.5733 91.9792 34.0954 93.0771C34.0917 93.0865 34.0873 93.0952 34.0837 93.104C34.0614 93.1549 34.0386 93.2058 34.0151 93.256C33.873 93.5665 33.7153 93.8684 33.5428 94.1602C32.7548 95.5 31.6747 96.6086 30.398 97.388C29.1213 98.1674 27.6872 98.5937 26.2226 98.6291L26.3109 104.138L27.4624 103.48L27.668 103.904L26.3195 104.674L26.4844 114.905L26.4862 115.041L25.5959 115.256L25.5978 115.119L25.8781 98.6298C24.6992 98.6115 23.5354 98.3392 22.4543 97.8289C21.3732 97.3187 20.3963 96.5805 19.5803 95.6572C19.5242 95.5943 19.4686 95.5293 19.4143 95.465L19.4081 95.4576C18.7282 94.6533 18.1784 93.7303 17.7818 92.7275C17.7904 92.7382 17.7997 92.7483 17.8083 92.759C16.912 90.485 16.8512 87.9252 17.6384 85.6042C18.4257 83.2831 20.0014 81.3766 22.0426 80.2752C22.0735 80.2585 22.105 80.2424 22.1359 80.2256C24.155 79.1706 26.4659 78.977 28.6105 79.6832C30.755 80.3895 32.5767 81.9441 33.7144 84.0388C33.7688 84.138 33.8213 84.2391 33.8719 84.3409C34.5786 85.7546 34.9479 87.3376 34.9462 88.9458Z" fill="#E5E5E5"/>
<path d="M33.7443 93.1093C40.2075 93.1093 45.4469 87.4254 45.4469 80.4139C45.4469 73.4024 40.2075 67.7185 33.7443 67.7185C27.2811 67.7185 22.0417 73.4024 22.0417 80.4139C22.0417 87.4254 27.2811 93.1093 33.7443 93.1093Z" fill="#E5E5E5"/>
<path opacity="0.2" d="M25.1035 71.9343C24.0119 74.7044 23.8638 77.8052 24.6857 80.6828C25.5076 83.5604 27.2459 86.0272 29.59 87.6424C31.9341 89.2576 34.7312 89.9159 37.4816 89.4998C40.2319 89.0837 42.7563 87.6201 44.6035 85.3708C43.9367 87.0631 42.9387 88.578 41.6786 89.8104C40.4185 91.0428 38.9265 91.9633 37.3059 92.508C35.6854 93.0528 33.975 93.2088 32.2934 92.9653C30.6117 92.7218 28.999 92.0846 27.5669 91.0978C26.1348 90.111 24.9175 88.7983 23.9995 87.2505C23.0815 85.7027 22.4847 83.9569 22.2503 82.134C22.016 80.3112 22.1498 78.4548 22.6425 76.6936C23.1351 74.9325 23.9749 73.3085 25.1035 71.9343Z" fill="#252525"/>
<path d="M34.3774 115.781L33.1822 115.417L33.1847 115.278L33.5429 94.1604L33.5608 93.1074L33.5611 93.0767L33.6238 89.3871L33.7144 84.0396V84.0388L33.776 80.4141H33.809L33.872 84.3411L33.954 89.4524L34.0128 93.0791V93.1059L34.0153 93.2555V93.2562L34.1288 100.326L34.1406 101.028L34.3752 115.64L34.3774 115.781Z" fill="#252525"/>
<path d="M35.6377 99.4637L33.7032 100.569L33.9728 101.124L35.9073 100.019L35.6377 99.4637Z" fill="#252525"/>
<path d="M185.445 39.3271C170.674 38.3798 155.859 38.6268 141.122 40.0662C134.019 40.7627 126.803 41.515 119.831 43.1959C114.216 44.5497 107.699 46.8379 104.2 52.1675C103.467 53.2413 102.973 54.4845 102.757 55.7998C102.541 57.1152 102.608 58.4669 102.953 59.7494C103.788 62.7876 105.863 65.3165 108.073 67.2973C113.16 71.8562 119.471 74.509 125.109 78.1309C135.403 84.7438 144.823 93.657 150.87 104.98C153.531 109.962 156.062 116.587 153.099 122.077C150.197 127.456 143.717 129.309 138.433 130.183C131.809 131.278 124.987 130.981 118.336 130.367C111.044 129.63 103.794 128.478 96.6132 126.916C82.5465 123.986 68.6078 120.258 54.3456 118.563C47.1945 117.651 39.983 117.425 32.7952 117.887C26.3038 118.362 19.7568 119.476 13.6585 122.015C8.95934 123.972 3.95023 126.932 1.41191 131.87C-1.03492 136.629 -0.0805835 142.117 2.58371 146.508C5.7894 151.791 10.7882 155.412 15.9854 158.058C21.9027 161.071 28.2319 163.024 34.5692 164.684C37.7833 165.527 41.0148 166.288 44.2466 167.046C44.9208 167.204 45.2089 166.08 44.5322 165.922C38.0151 164.394 31.4791 162.861 25.1238 160.65C19.2426 158.603 13.224 155.982 8.40785 151.684C4.51157 148.208 0.807014 143.13 1.03699 137.357C1.26882 131.536 5.77022 127.473 10.1822 124.971C15.6959 121.845 21.9603 120.323 28.0987 119.527C35.1272 118.677 42.2153 118.573 49.2626 119.215C63.4911 120.389 77.4018 123.905 91.3523 126.972C104.905 129.952 118.881 132.711 132.77 131.946C138.275 131.643 144.173 130.788 149.034 127.773C151.259 126.393 153.266 124.447 154.397 121.914C155.416 119.504 155.738 116.816 155.321 114.203C154.533 108.464 151.391 103.143 148.256 98.5721C144.82 93.6142 140.833 89.1345 136.387 85.234C131.507 80.9738 126.246 77.2556 120.682 74.1352C117.731 72.4499 114.739 70.8293 111.927 68.8774C109.23 67.0058 106.571 64.7538 104.924 61.7156C103.5 59.0877 103.239 56.0885 104.722 53.4233C106.223 50.7277 108.807 48.8476 111.356 47.4737C117.497 44.1636 124.637 43.2776 131.356 42.3696C145.782 40.4269 160.321 39.6405 174.854 40.0168C178.387 40.1069 181.917 40.2656 185.445 40.4927C186.136 40.5368 186.133 39.371 185.445 39.3271V39.3271Z" fill="#252525"/>
<path d="M176.075 1.96298L178.306 0.0271115C176.572 -0.18034 175.86 0.845145 175.569 1.65682C174.215 1.04685 172.741 1.84625 172.741 1.84625L177.205 3.60436C176.979 2.9518 176.587 2.38242 176.075 1.96298Z" fill="#252525"/>
<path d="M165.247 8.09164L167.478 6.15577C165.744 5.94832 165.032 6.9738 164.741 7.78548C163.387 7.17551 161.913 7.97491 161.913 7.97491L166.377 9.73302C166.151 9.08046 165.759 8.51108 165.247 8.09164Z" fill="#252525"/>
<path d="M176.075 17.7952L178.306 15.8594C176.572 15.6519 175.86 16.6774 175.569 17.4891C174.215 16.8791 172.741 17.6785 172.741 17.6785L177.205 19.4366C176.979 18.7841 176.587 18.2147 176.075 17.7952Z" fill="#252525"/>
<path d="M142.626 20.6634C146.339 20.6634 149.348 17.3985 149.348 13.371C149.348 9.34353 146.339 6.07861 142.626 6.07861C138.914 6.07861 135.904 9.34353 135.904 13.371C135.904 17.3985 138.914 20.6634 142.626 20.6634Z" fill="#FF6583"/>
<path d="M163.706 35.8423H130.729C130.687 35.8429 130.646 35.8393 130.605 35.8317L146.202 6.52602C146.298 6.34346 146.436 6.19159 146.603 6.08592C146.77 5.98024 146.959 5.92456 147.153 5.92456C147.346 5.92456 147.536 5.98024 147.703 6.08592C147.87 6.19159 148.008 6.34346 148.103 6.52602L158.57 26.1917L159.071 27.1326L163.706 35.8423Z" fill="#63628C"/>
<path d="M182.066 35.8426H153.544L159.071 27.1336L159.468 26.5061L166.67 15.1567C166.798 14.9831 166.957 14.8404 167.139 14.7381C167.32 14.6358 167.519 14.5761 167.724 14.5629C167.928 14.5496 168.132 14.5832 168.324 14.6614C168.515 14.7395 168.689 14.8605 168.835 15.0165C168.872 15.0608 168.907 15.1076 168.939 15.1567L182.066 35.8426Z" fill="#63628C"/>
<path d="M135.018 103.056C138.143 104.75 140.046 106.989 140.046 109.444C140.046 114.733 131.224 119.02 120.342 119.02C115.611 119.02 111.27 118.209 107.873 116.858C111.481 118.815 116.718 120.046 122.549 120.046C133.431 120.046 142.253 115.759 142.253 110.47C142.253 107.481 139.433 104.812 135.018 103.056Z" fill="#F1F1F1"/>
<path d="M141.97 106.688C145.497 108.601 147.645 111.127 147.645 113.897C147.645 119.865 137.69 124.703 125.411 124.703C120.072 124.703 115.174 123.788 111.341 122.263C115.412 124.471 121.322 125.861 127.901 125.861C140.18 125.861 150.135 121.023 150.135 115.055C150.135 111.682 146.953 108.67 141.97 106.688Z" fill="#F1F1F1"/>
<path d="M132.357 104.656C134.559 105.85 135.9 107.427 135.9 109.157C135.9 112.883 129.684 115.903 122.018 115.903C119.031 115.945 116.059 115.43 113.233 114.38C115.775 115.758 119.464 116.626 123.572 116.626C131.239 116.626 137.454 113.606 137.454 109.879C137.454 107.773 135.468 105.893 132.357 104.656Z" fill="#F1F1F1"/>
<path d="M101.415 103.972C101.415 103.972 101.899 111.645 115.771 111.645C129.642 111.645 133.784 103.972 133.784 103.972H101.415Z" fill="#252525"/>
<path d="M121.104 83.8393C119.102 82.1889 116.588 81.443 114.09 81.7579C116.323 82.3417 118.294 83.76 119.659 85.7636C121.024 87.7672 121.694 90.2283 121.553 92.7148C121.412 95.2013 120.468 97.5544 118.887 99.3612C117.306 101.168 115.189 102.313 112.907 102.595C115.09 103.167 117.387 102.906 119.413 101.856C121.439 100.806 123.07 99.0318 124.032 96.831C124.993 94.6302 125.227 92.1373 124.694 89.7713C124.161 87.4054 122.894 85.3106 121.104 83.8393Z" fill="#252525"/>
<path d="M116.559 80.373H115.613V104.796H116.559V80.373Z" fill="#252525"/>
<path d="M178.716 62.2265L178.711 62.217L178.699 61.6205L181.662 56.9535L178.702 61.1739L178.692 61.3L178.59 56.5299L181.149 51.6913L178.583 55.6919L178.61 45.8093L178.61 45.7764L178.609 45.8087L178.439 53.5975L176.106 50.4337L178.431 54.2685L178.38 58.5354L176.234 54.3711L178.373 59.1627L178.344 61.5352L178.266 68.1083L178.26 68.5995C178.458 68.6011 178.653 68.5976 178.847 68.5888L178.713 62.2752L178.716 62.2265Z" fill="#CBCBCB"/>
<path d="M164.529 64.2787L164.524 64.2693L164.512 63.6727L167.475 59.0058L164.515 63.2262L164.504 63.3523L164.403 58.5821L166.962 53.7436L164.396 57.7441L164.423 47.8615L164.423 47.8286L164.422 47.861L164.252 55.6498L161.919 52.486L164.244 56.3208L164.193 60.5876L162.047 56.4234L164.185 61.2149L164.157 63.5875L164.079 70.1606L164.073 70.6517C164.271 70.6534 164.466 70.6498 164.66 70.641L164.526 64.3274L164.529 64.2787Z" fill="#CBCBCB"/>
<path d="M171.465 57.7804L171.46 57.771L171.447 57.1744L174.41 52.5075L171.451 56.7279L171.44 56.854L171.339 52.0838L173.898 47.2453L171.332 51.2458L171.359 41.3632L171.358 41.3303L171.358 41.3627L171.188 49.1515L168.855 45.9877L171.18 49.8225L171.129 54.0893L168.983 49.925L171.121 54.7166L171.093 57.0891L171.015 63.6623L171.009 64.1534C171.206 64.1551 171.402 64.1515 171.596 64.1427L171.462 57.8291L171.465 57.7804Z" fill="#CBCBCB"/>
<path d="M54.2936 171.348C56.383 171.348 58.0768 169.511 58.0768 167.244C58.0768 164.977 56.383 163.14 54.2936 163.14C52.2042 163.14 50.5104 164.977 50.5104 167.244C50.5104 169.511 52.2042 171.348 54.2936 171.348Z" fill="#63628C"/>
</svg>
