<svg width="20" height="24" viewBox="0 0 20 24" fill="none" xmlns="http://www.w3.org/2000/svg">
<path d="M15.0002 12.5C15.0002 12.8978 14.8422 13.2794 14.5609 13.5607C14.2796 13.842 13.8981 14 13.5002 14H6.50024C6.10242 14 5.72089 13.842 5.43958 13.5607C5.15828 13.2794 5.00024 12.8978 5.00024 12.5C5.00024 12.1022 5.15828 11.7207 5.43958 11.4394C5.72089 11.1581 6.10242 11 6.50024 11H13.5002C13.8981 11 14.2796 11.1581 14.5609 11.4394C14.8422 11.7207 15.0002 12.1022 15.0002 12.5ZM10.5002 16H6.50024C6.10242 16 5.72089 16.1581 5.43958 16.4394C5.15828 16.7207 5.00024 17.1022 5.00024 17.5C5.00024 17.8978 5.15828 18.2794 5.43958 18.5607C5.72089 18.842 6.10242 19 6.50024 19H10.5002C10.8981 19 11.2796 18.842 11.5609 18.5607C11.8422 18.2794 12.0002 17.8978 12.0002 17.5C12.0002 17.1022 11.8422 16.7207 11.5609 16.4394C11.2796 16.1581 10.8981 16 10.5002 16ZM20.0002 8.15702V18.5C19.9987 19.9582 19.4187 21.3563 18.3876 22.3874C17.3565 23.4185 15.9584 23.9984 14.5002 24H5.50024C4.04204 23.9984 2.64402 23.4185 1.61291 22.3874C0.581805 21.3563 0.00183231 19.9582 0.000244141 18.5V5.50002C0.00183231 4.04182 0.581805 2.6438 1.61291 1.61269C2.64402 0.581583 4.04204 0.00161038 5.50024 2.22109e-05H11.8432C12.5658 -0.00203834 13.2816 0.139292 13.9492 0.415827C14.6167 0.692361 15.2228 1.0986 15.7322 1.61102L18.3892 4.26802C18.9016 4.77754 19.3078 5.38361 19.5843 6.05116C19.8608 6.7187 20.0022 7.43447 20.0002 8.15702ZM17.0002 18.5V9.00002H13.0002C12.4698 9.00002 11.9611 8.78931 11.586 8.41424C11.211 8.03916 11.0002 7.53046 11.0002 7.00002V3.00002H5.50024C4.8372 3.00002 4.20132 3.26341 3.73248 3.73226C3.26364 4.2011 3.00024 4.83698 3.00024 5.50002V18.5C3.00024 19.1631 3.26364 19.7989 3.73248 20.2678C4.20132 20.7366 4.8372 21 5.50024 21H14.5002C15.1633 21 15.7992 20.7366 16.268 20.2678C16.7369 19.7989 17.0002 19.1631 17.0002 18.5Z" fill="#6A6B70"/>
</svg>
