<svg width="16" height="17" viewBox="0 0 16 17" fill="none" xmlns="http://www.w3.org/2000/svg">
<g clip-path="url(#clip0_73_369)">
<path d="M8 0.5C6.41775 0.5 4.87104 0.969192 3.55544 1.84824C2.23985 2.72729 1.21447 3.97672 0.608967 5.43853C0.00346629 6.90034 -0.15496 8.50887 0.153721 10.0607C0.462403 11.6126 1.22433 13.038 2.34315 14.1569C3.46197 15.2757 4.88743 16.0376 6.43928 16.3463C7.99113 16.655 9.59966 16.4965 11.0615 15.891C12.5233 15.2855 13.7727 14.2602 14.6518 12.9446C15.5308 11.629 16 10.0823 16 8.5C15.9977 6.37897 15.1541 4.34547 13.6543 2.84568C12.1545 1.34589 10.121 0.502294 8 0.5V0.5ZM8.33334 14.4833V13.6267C8.33334 12.8858 8.03904 12.1753 7.51519 11.6515C6.99134 11.1276 6.28084 10.8333 5.54 10.8333H5.53334C5.25809 10.8333 4.98554 10.7791 4.73125 10.6738C4.47697 10.5684 4.24593 10.414 4.05134 10.2193L2.016 8.18267C2.07037 7.12357 2.40494 6.09789 2.98553 5.21043C3.56611 4.32298 4.3719 3.60557 5.32054 3.13152C6.26919 2.65747 7.32668 2.44377 8.38496 2.51226C9.44324 2.58075 10.4644 2.92897 11.344 3.52133C11.1675 3.65089 10.9543 3.72093 10.7353 3.72133H9.77934C9.64303 3.72133 9.50806 3.74821 9.38216 3.80044C9.25626 3.85266 9.14188 3.9292 9.0456 4.02567C8.94931 4.12215 8.87299 4.23667 8.82101 4.36267C8.76903 4.48868 8.74241 4.6237 8.74267 4.76V5.45467C8.74267 5.72961 8.63345 5.99329 8.43904 6.1877C8.24463 6.38211 7.98095 6.49133 7.706 6.49133C7.56964 6.49098 7.43455 6.51754 7.30847 6.56948C7.18239 6.62142 7.06779 6.69772 6.97125 6.79402C6.8747 6.89032 6.7981 7.00472 6.74584 7.13067C6.69357 7.25662 6.66667 7.39164 6.66667 7.528V8.22267C6.66667 8.49761 6.77589 8.76129 6.9703 8.9557C7.16472 9.15011 7.4284 9.25933 7.70334 9.25933H10.474C10.7489 9.25933 11.0126 9.36855 11.207 9.56297C11.4015 9.75738 11.5107 10.0211 11.5107 10.296V11.3093C11.5107 11.4455 11.5375 11.5804 11.5897 11.7063C11.6419 11.8321 11.7183 11.9464 11.8147 12.0427L12.37 12.598C11.3178 13.7233 9.87161 14.3987 8.33334 14.4833Z" fill="#6A6B70"/>
</g>
<defs>
<clipPath id="clip0_73_369">
<rect width="16" height="16" fill="white" transform="translate(0 0.5)"/>
</clipPath>
</defs>
</svg>
