<svg width="39" height="25" viewBox="0 0 39 25" fill="none" xmlns="http://www.w3.org/2000/svg">
<path d="M5.89062 1.25L10.1719 9.1875L14.4531 1.25H19.8125L13.2031 12.5312L19.9844 24H14.5781L10.1719 15.9062L5.76562 24H0.328125L7.125 12.5312L0.5 1.25H5.89062ZM34.1875 18.0469C34.1875 17.6406 34.125 17.276 34 16.9531C33.8854 16.6198 33.6667 16.3177 33.3438 16.0469C33.0208 15.7656 32.5677 15.4896 31.9844 15.2188C31.401 14.9479 30.6458 14.6667 29.7188 14.375C28.6875 14.0417 27.7083 13.6667 26.7812 13.25C25.8646 12.8333 25.0521 12.349 24.3438 11.7969C23.6458 11.2344 23.0938 10.5833 22.6875 9.84375C22.2917 9.10417 22.0938 8.24479 22.0938 7.26562C22.0938 6.31771 22.3021 5.45833 22.7188 4.6875C23.1354 3.90625 23.7188 3.23958 24.4688 2.6875C25.2188 2.125 26.1042 1.69271 27.125 1.39062C28.1562 1.08854 29.2865 0.9375 30.5156 0.9375C32.1927 0.9375 33.6562 1.23958 34.9062 1.84375C36.1562 2.44792 37.125 3.27604 37.8125 4.32812C38.5104 5.38021 38.8594 6.58333 38.8594 7.9375H34.2031C34.2031 7.27083 34.0625 6.6875 33.7812 6.1875C33.5104 5.67708 33.0938 5.27604 32.5312 4.98438C31.9792 4.69271 31.2812 4.54688 30.4375 4.54688C29.625 4.54688 28.9479 4.67188 28.4062 4.92188C27.8646 5.16146 27.4583 5.48958 27.1875 5.90625C26.9167 6.3125 26.7812 6.77083 26.7812 7.28125C26.7812 7.66667 26.875 8.01562 27.0625 8.32812C27.2604 8.64062 27.5521 8.93229 27.9375 9.20312C28.3229 9.47396 28.7969 9.72917 29.3594 9.96875C29.9219 10.2083 30.5729 10.4427 31.3125 10.6719C32.5521 11.0469 33.6406 11.4688 34.5781 11.9375C35.526 12.4062 36.3177 12.9323 36.9531 13.5156C37.5885 14.099 38.0677 14.7604 38.3906 15.5C38.7135 16.2396 38.875 17.0781 38.875 18.0156C38.875 19.0052 38.6823 19.8906 38.2969 20.6719C37.9115 21.4531 37.3542 22.1146 36.625 22.6562C35.8958 23.1979 35.026 23.6094 34.0156 23.8906C33.0052 24.1719 31.875 24.3125 30.625 24.3125C29.5 24.3125 28.3906 24.1667 27.2969 23.875C26.2031 23.5729 25.2083 23.1198 24.3125 22.5156C23.4271 21.9115 22.7188 21.1406 22.1875 20.2031C21.6562 19.2656 21.3906 18.1562 21.3906 16.875H26.0938C26.0938 17.5833 26.2031 18.1823 26.4219 18.6719C26.6406 19.1615 26.9479 19.5573 27.3438 19.8594C27.75 20.1615 28.2292 20.3802 28.7812 20.5156C29.3438 20.651 29.9583 20.7188 30.625 20.7188C31.4375 20.7188 32.1042 20.6042 32.625 20.375C33.1562 20.1458 33.5469 19.8281 33.7969 19.4219C34.0573 19.0156 34.1875 18.5573 34.1875 18.0469Z" fill="#63628C"/>
</svg>
